HIERARCHY
ROOT Hips
{
  OFFSET -266.129 83.8661 903.207
  CHANNELS 6 Xposition Yposition Zposition Zrotation Xrotation Yrotation
  JOINT Spine
  {
    OFFSET 0 8 0
    CHANNELS 6 Xposition Yposition Zposition Zrotation Xrotation Yrotation
    JOINT Spine1
    {
      OFFSET 0 8 0
      CHANNELS 6 Xposition Yposition Zposition Zrotation Xrotation Yrotation
      JOINT Spine2
      {
        OFFSET 0 8 0
        CHANNELS 6 Xposition Yposition Zposition Zrotation Xrotation Yrotation
        JOINT Spine3
        {
          OFFSET 0 8 0
          CHANNELS 6 Xposition Yposition Zposition Zrotation Xrotation Yrotation
          JOINT Neck
          {
            OFFSET 0 17 0
            CHANNELS 6 Xposition Yposition Zposition Zrotation Xrotation Yrotation
            JOINT Head
            {
              OFFSET 0 10.8 0
              CHANNELS 6 Xposition Yposition Zposition Zrotation Xrotation Yrotation
              End Site
              {
                OFFSET 0 20.25 0
              }
            }
          }
          JOINT LeftShoulder
          {
            OFFSET 5 17 0
            CHANNELS 6 Xposition Yposition Zposition Zrotation Xrotation Yrotation
            JOINT LeftShoulder2
            {
              OFFSET 6.45 0 0
              CHANNELS 6 Xposition Yposition Zposition Zrotation Xrotation Yrotation
              JOINT LeftArm
              {
                OFFSET 6.45 0 0
                CHANNELS 6 Xposition Yposition Zposition Zrotation Xrotation Yrotation
                JOINT LeftForeArm
                {
                  OFFSET 0 -32.4 -2
                  CHANNELS 6 Xposition Yposition Zposition Zrotation Xrotation Yrotation
                  JOINT LeftHand
                  {
                    OFFSET 0 -25.65 2
                    CHANNELS 6 Xposition Yposition Zposition Zrotation Xrotation Yrotation
                    JOINT LeftHandThumb1
                    {
                      OFFSET -0.5 -1.5 2.65
                      CHANNELS 6 Xposition Yposition Zposition Zrotation Xrotation Yrotation
                      JOINT LeftHandThumb2
                      {
                        OFFSET 0 -3.8 3.7
                        CHANNELS 6 Xposition Yposition Zposition Zrotation Xrotation Yrotation
                        JOINT LeftHandThumb3
                        {
                          OFFSET 0 -3 2.7
                          CHANNELS 6 Xposition Yposition Zposition Zrotation Xrotation Yrotation
                          End Site
                          {
                            OFFSET 0 -2.3 1.8
                          }
                        }
                      }
                    }
                    JOINT LeftHandIndex
                    {
                      OFFSET 0 -1.9 1.6
                      CHANNELS 6 Xposition Yposition Zposition Zrotation Xrotation Yrotation
                      JOINT LeftHandIndex1
                      {
                        OFFSET 0 -8.3 1.9
                        CHANNELS 6 Xposition Yposition Zposition Zrotation Xrotation Yrotation
                        JOINT LeftHandIndex2
                        {
                          OFFSET 0 -4.5 0
                          CHANNELS 6 Xposition Yposition Zposition Zrotation Xrotation Yrotation
                          JOINT LeftHandIndex3
                          {
                            OFFSET 0 -3.4 0
                            CHANNELS 6 Xposition Yposition Zposition Zrotation Xrotation Yrotation
                            End Site
                            {
                              OFFSET 0 -2.6 0
                            }
                          }
                        }
                      }
                    }
                    JOINT LeftHandMiddle
                    {
                      OFFSET -0.25 -2.2 0.4
                      CHANNELS 6 Xposition Yposition Zposition Zrotation Xrotation Yrotation
                      JOINT LeftHandMiddle1
                      {
                        OFFSET 0 -8.3 1
                        CHANNELS 6 Xposition Yposition Zposition Zrotation Xrotation Yrotation
                        JOINT LeftHandMiddle2
                        {
                          OFFSET 0 -4.65 0
                          CHANNELS 6 Xposition Yposition Zposition Zrotation Xrotation Yrotation
                          JOINT LeftHandMiddle3
                          {
                            OFFSET 0 -3.3 0
                            CHANNELS 6 Xposition Yposition Zposition Zrotation Xrotation Yrotation
                            End Site
                            {
                              OFFSET 0 -2.7 0
                            }
                          }
                        }
                      }
                    }
                    JOINT LeftHandRing
                    {
                      OFFSET -0.5 -2.15 -0.8
                      CHANNELS 6 Xposition Yposition Zposition Zrotation Xrotation Yrotation
                      JOINT LeftHandRing1
                      {
                        OFFSET 0 -7.75 -0.2
                        CHANNELS 6 Xposition Yposition Zposition Zrotation Xrotation Yrotation
                        JOINT LeftHandRing2
                        {
                          OFFSET 0 -3.8 0
                          CHANNELS 6 Xposition Yposition Zposition Zrotation Xrotation Yrotation
                          JOINT LeftHandRing3
                          {
                            OFFSET 0 -3.4 0
                            CHANNELS 6 Xposition Yposition Zposition Zrotation Xrotation Yrotation
                            End Site
                            {
                              OFFSET 0 -2.6 0
                            }
                          }
                        }
                      }
                    }
                    JOINT LeftHandPinky
                    {
                      OFFSET -0.75 -1.75 -1.85
                      CHANNELS 6 Xposition Yposition Zposition Zrotation Xrotation Yrotation
                      JOINT LeftHandPinky1
                      {
                        OFFSET 0 -7.15 -1
                        CHANNELS 6 Xposition Yposition Zposition Zrotation Xrotation Yrotation
                        JOINT LeftHandPinky2
                        {
                          OFFSET 0 -3 0
                          CHANNELS 6 Xposition Yposition Zposition Zrotation Xrotation Yrotation
                          JOINT LeftHandPinky3
                          {
                            OFFSET 0 -2.35 0
                            CHANNELS 6 Xposition Yposition Zposition Zrotation Xrotation Yrotation
                            End Site
                            {
                              OFFSET 0 -2.1 0
                            }
                          }
                        }
                      }
                    }
                  }
                }
              }
            }
          }
          JOINT RightShoulder
          {
            OFFSET -5 17 0
            CHANNELS 6 Xposition Yposition Zposition Zrotation Xrotation Yrotation
            JOINT RightShoulder2
            {
              OFFSET -6.45 0 0
              CHANNELS 6 Xposition Yposition Zposition Zrotation Xrotation Yrotation
              JOINT RightArm
              {
                OFFSET -6.45 0 0
                CHANNELS 6 Xposition Yposition Zposition Zrotation Xrotation Yrotation
                JOINT RightForeArm
                {
                  OFFSET 0 -32.4 -2
                  CHANNELS 6 Xposition Yposition Zposition Zrotation Xrotation Yrotation
                  JOINT RightHand
                  {
                    OFFSET 0 -25.65 2
                    CHANNELS 6 Xposition Yposition Zposition Zrotation Xrotation Yrotation
                    JOINT RightHandThumb1
                    {
                      OFFSET 0.5 -1.5 2.65
                      CHANNELS 6 Xposition Yposition Zposition Zrotation Xrotation Yrotation
                      JOINT RightHandThumb2
                      {
                        OFFSET 0 -3.8 3.7
                        CHANNELS 6 Xposition Yposition Zposition Zrotation Xrotation Yrotation
                        JOINT RightHandThumb3
                        {
                          OFFSET 0 -3 2.7
                          CHANNELS 6 Xposition Yposition Zposition Zrotation Xrotation Yrotation
                          End Site
                          {
                            OFFSET 0 -2.3 1.8
                          }
                        }
                      }
                    }
                    JOINT RightHandIndex
                    {
                      OFFSET 0 -1.9 1.6
                      CHANNELS 6 Xposition Yposition Zposition Zrotation Xrotation Yrotation
                      JOINT RightHandIndex1
                      {
                        OFFSET 0 -8.3 1.9
                        CHANNELS 6 Xposition Yposition Zposition Zrotation Xrotation Yrotation
                        JOINT RightHandIndex2
                        {
                          OFFSET 0 -4.5 0
                          CHANNELS 6 Xposition Yposition Zposition Zrotation Xrotation Yrotation
                          JOINT RightHandIndex3
                          {
                            OFFSET 0 -3.4 0
                            CHANNELS 6 Xposition Yposition Zposition Zrotation Xrotation Yrotation
                            End Site
                            {
                              OFFSET 0 -2.6 0
                            }
                          }
                        }
                      }
                    }
                    JOINT RightHandMiddle
                    {
                      OFFSET 0.25 -2.2 0.4
                      CHANNELS 6 Xposition Yposition Zposition Zrotation Xrotation Yrotation
                      JOINT RightHandMiddle1
                      {
                        OFFSET 0 -8.3 1
                        CHANNELS 6 Xposition Yposition Zposition Zrotation Xrotation Yrotation
                        JOINT RightHandMiddle2
                        {
                          OFFSET 0 -4.65 0
                          CHANNELS 6 Xposition Yposition Zposition Zrotation Xrotation Yrotation
                          JOINT RightHandMiddle3
                          {
                            OFFSET 0 -3.3 0
                            CHANNELS 6 Xposition Yposition Zposition Zrotation Xrotation Yrotation
                            End Site
                            {
                              OFFSET 0 -2.7 0
                            }
                          }
                        }
                      }
                    }
                    JOINT RightHandRing
                    {
                      OFFSET 0.5 -2.15 -0.8
                      CHANNELS 6 Xposition Yposition Zposition Zrotation Xrotation Yrotation
                      JOINT RightHandRing1
                      {
                        OFFSET 0 -7.75 -0.2
                        CHANNELS 6 Xposition Yposition Zposition Zrotation Xrotation Yrotation
                        JOINT RightHandRing2
                        {
                          OFFSET 0 -3.8 0
                          CHANNELS 6 Xposition Yposition Zposition Zrotation Xrotation Yrotation
                          JOINT RightHandRing3
                          {
                            OFFSET 0 -3.4 0
                            CHANNELS 6 Xposition Yposition Zposition Zrotation Xrotation Yrotation
                            End Site
                            {
                              OFFSET 0 -2.6 0
                            }
                          }
                        }
                      }
                    }
                    JOINT RightHandPinky
                    {
                      OFFSET 0.75 -1.75 -1.85
                      CHANNELS 6 Xposition Yposition Zposition Zrotation Xrotation Yrotation
                      JOINT RightHandPinky1
                      {
                        OFFSET 0 -7.15 -1
                        CHANNELS 6 Xposition Yposition Zposition Zrotation Xrotation Yrotation
                        JOINT RightHandPinky2
                        {
                          OFFSET 0 -3 0
                          CHANNELS 6 Xposition Yposition Zposition Zrotation Xrotation Yrotation
                          JOINT RightHandPinky3
                          {
                            OFFSET 0 -2.35 0
                            CHANNELS 6 Xposition Yposition Zposition Zrotation Xrotation Yrotation
                            End Site
                            {
                              OFFSET 0 -2.1 0
                            }
                          }
                        }
                      }
                    }
                  }
                }
              }
            }
          }
        }
      }
    }
  }
  JOINT LeftUpLeg
  {
    OFFSET 8 0 0
    CHANNELS 6 Xposition Yposition Zposition Zrotation Xrotation Yrotation
    JOINT LeftLeg
    {
      OFFSET 0 -45 -1
      CHANNELS 6 Xposition Yposition Zposition Zrotation Xrotation Yrotation
      JOINT LeftFoot
      {
        OFFSET 0 -41 -2
        CHANNELS 6 Xposition Yposition Zposition Zrotation Xrotation Yrotation
        JOINT LeftToeBase
        {
          OFFSET 0 -7.5 12.5
          CHANNELS 6 Xposition Yposition Zposition Zrotation Xrotation Yrotation
          JOINT LeftFootToe
          {
            OFFSET 0 0 4
            CHANNELS 6 Xposition Yposition Zposition Zrotation Xrotation Yrotation
            End Site
            {
              OFFSET 0 0 0
            }
          }
        }
      }
    }
  }
  JOINT RightUpLeg
  {
    OFFSET -8 0 0
    CHANNELS 6 Xposition Yposition Zposition Zrotation Xrotation Yrotation
    JOINT RightLeg
    {
      OFFSET 0 -45 -1
      CHANNELS 6 Xposition Yposition Zposition Zrotation Xrotation Yrotation
      JOINT RightFoot
      {
        OFFSET 0 -41 -2
        CHANNELS 6 Xposition Yposition Zposition Zrotation Xrotation Yrotation
        JOINT RightToeBase
        {
          OFFSET 0 -7.5 12.5
          CHANNELS 6 Xposition Yposition Zposition Zrotation Xrotation Yrotation
          JOINT RightFootToe
          {
            OFFSET 0 0 4
            CHANNELS 6 Xposition Yposition Zposition Zrotation Xrotation Yrotation
            End Site
            {
              OFFSET 0 0 0
            }
          }
        }
      }
    }
  }
}
MOTION
Frames:	3
Frame Time:	0.0111111
-245.829 71.7599 920.33 -17.624 16.4464 179.703 -5.68434e-14 8 1.13687e-13 3.78049 13.2041 -13.0966 2.84217e-14 8 -1.13687e-13 0.176317 7.94304 1.23787 2.84217e-14 8 0 0.0989241 3.97569 0.621541 -5.68434e-14 8 2.27374e-13 0.0987245 3.96613 0.619757 -2.84217e-14 17 0 1.53676 2.58665 -6.50577 0 10.8 1.13687e-13 4.06221 5.7454 -15.3629 5 17 0 -4.64107 -4.06529 -1.06201 6.45 -2.84217e-14 -1.13687e-13 0.61465 -0.413201 4.00597 6.45 1.42109e-14 0 46.1144 33.9734 8.42102 0 -32.4 -2 -119.051 -69.1862 -143.581 0 -25.65 2 -22.5687 -54.2328 -42.2844 -0.5 -1.5 2.65 -14.721 35.8056 -30.2112 5.68434e-14 -3.8 3.7 -1.44694 5.95719 -0.119638 0 -3 2.7 -0.111943 -11.451 0.265069 -5.68434e-14 -1.9 1.6 4.77083e-15 0 -0 5.68434e-14 -8.3 1.9 -71.2708 -15.8736 -9.58263 1.13687e-13 -4.5 0 -0.000626353 0.000398333 1.40148e-05 0 -3.4 1.13687e-13 -9.24917e-06 -1.10697e-05 -2.92076e-06 -0.25 -2.2 0.4 4.77083e-15 0 -0 -5.68434e-14 -8.3 1 -41.7194 -14.953 -4.42459 0 -4.65 0 -0.000819851 0.00054181 7.15263e-06 -1.13687e-13 -3.3 -2.27374e-13 -5.67906e-06 4.98916e-06 6.6088e-06 -0.5 -2.15 -0.8 4.77083e-15 0 -0 -5.68434e-14 -7.75 -0.2 -83.1924 2.43156 10.7369 1.13687e-13 -3.8 0 -0.000600995 0.0049589 -0.00030369 1.13687e-13 -3.4 -1.13687e-13 1.67795e-07 1.96309e-05 -0.000276921 -0.75 -1.75 -1.85 4.77083e-15 0 -0 0 -7.15 -1 -81.4447 -4.91472 6.29747 0 -3 0 -2.23326e-06 0.00489298 -1.322e-05 0 -2.35 -5.68434e-14 -7.1352e-06 1.61152e-05 -6.74512e-06 -5 17 -1.13687e-13 9.59358 -2.48058 3.95212 -6.45 0 -1.13687e-13 -2.22185 0.598094 -4.52396 -6.45 0 -1.13687e-13 -38.9588 12.2562 -8.07467 2.84217e-14 -32.4 -2 51.5289 -79.107 47.7692 2.84217e-14 -25.65 2 16.0796 4.25994 0.890116 0.5 -1.5 2.65 -15.7296 -13.3869 -10.8944 5.68434e-14 -3.8 3.7 -1.00829 17.4373 -0.719547 -2.84217e-14 -3 2.7 0.0185581 15.2357 -0.0233893 0 -1.9 1.6 -7.95139e-16 1.27222e-14 -0 0 -8.3 1.9 8.97456 -7.42964 0.553912 0 -4.5 -5.68434e-14 -5.80541e-08 -4.99914e-07 7.59784e-05 0 -3.4 0 5.60112e-07 -8.65457e-07 7.36744e-05 0.25 -2.2 0.4 -7.95139e-16 1.27222e-14 -0 0 -8.3 1 16.1728 -5.57011 0.0465061 0 -4.65 1.13687e-13 30.4485 46.4928 18.6505 0 -3.3 5.68434e-14 55.4047 -0.0323643 0.0893964 0.5 -2.15 -0.8 -7.95139e-16 1.27222e-14 -0 0 -7.75 -0.2 37.9986 -3.63001 -0.952082 -1.13687e-13 -3.8 0 27.8423 37.2182 12.0199 -1.13687e-13 -3.4 -2.84217e-14 44.3135 0.00584528 -0.00678503 0.75 -1.75 -1.85 -7.95139e-16 1.27222e-14 -0 0 -7.15 -1 54.1309 -6.55453 -0.404481 1.13687e-13 -3 -5.68434e-14 23.4211 38.2255 14.9611 0 -2.35 -2.84217e-14 46.5102 -0.00299848 0.0081876 8 2.84217e-14 -1.13687e-13 7.25701 -35.302 -173.895 -5.68434e-14 -45 -1 21.2359 -48.899 112.679 0 -41 -2 -0.578635 1.18371 79.545 5.68434e-14 -7.5 12.5 0.00234207 5.92526e-06 8.82036e-06 -5.68434e-14 -7.10543e-15 4 6.4588 -0.416768 41.9919 -8 -2.84217e-14 0 2.16942 -42.8605 -121.572 -1.13687e-13 -45 -1 -74.9748 -37.4839 61.8477 0 -41 -2 -16.3514 -9.09064 47.3973 0 -7.5 12.5 0.00491947 -20.025 -0.000590939 0 2.22045e-16 4 -8.35688 15.5316 38.6023 
-245.805 71.7733 920.346 -17.8375 16.4661 179.559 -5.68434e-14 8 0 3.78085 13.162 -13.0841 -2.84217e-14 8 -1.13687e-13 0.165334 7.97308 1.27598 0 8 -1.13687e-13 0.097454 3.99086 0.640301 -2.84217e-14 8 1.13687e-13 0.0972588 3.98111 0.638538 2.84217e-14 17 0 1.53589 2.62441 -6.49549 -2.84217e-14 10.8 0 4.05349 5.83425 -15.3405 5 17 -2.27374e-13 -4.63407 -4.05091 -0.966696 6.45 -4.26326e-14 1.13687e-13 0.613979 -0.401052 4.03151 6.45 2.84217e-14 1.13687e-13 45.7622 34.002 8.17798 -5.68434e-14 -32.4 -2 -119.38 -69.4265 -144.332 0 -25.65 2 -22.0738 -54.4545 -42.5468 -0.5 -1.5 2.65 -14.6248 34.7339 -31.0298 -5.68434e-14 -3.8 3.7 -1.45427 6.68147 -0.119806 0 -3 2.7 -0.114729 -10.8595 0.26453 0 -1.9 1.6 -1.59028e-15 -9.54166e-15 -0 5.68434e-14 -8.3 1.9 -71.2669 -15.845 -9.55951 1.13687e-13 -4.5 -1.13687e-13 -0.000626353 0.000398333 1.40148e-05 0 -3.4 0 -9.24917e-06 -1.10697e-05 -2.92076e-06 -0.25 -2.2 0.4 -1.59028e-15 -9.54166e-15 -0 5.68434e-14 -8.3 1 -41.9579 -14.5495 -4.29824 0 -4.65 0 -0.000819851 0.00054181 7.15263e-06 -1.13687e-13 -3.3 -1.13687e-13 -5.67906e-06 4.98916e-06 6.6088e-06 -0.5 -2.15 -0.8 -1.59028e-15 -9.54166e-15 -0 0 -7.75 -0.2 -83.5252 2.45142 10.861 -1.13687e-13 -3.8 0 -0.000600995 0.0049589 -0.00030369 0 -3.4 -5.68434e-14 1.67795e-07 1.96309e-05 -0.000276921 -0.75 -1.75 -1.85 -1.59028e-15 -9.54166e-15 -0 0 -7.15 -1 -81.854 -4.75081 6.59183 0 -3 5.68434e-14 -2.23326e-06 0.00489298 -1.322e-05 0 -2.35 0 -7.1352e-06 1.61152e-05 -6.74512e-06 -5 17 -2.27374e-13 9.5602 -2.43823 4.02178 -6.45 -2.84217e-14 0 -2.20941 0.588856 -4.5186 -6.45 2.84217e-14 1.13687e-13 -39.1591 11.9396 -8.13191 2.84217e-14 -32.4 -2 51.6508 -79.15 47.8128 2.84217e-14 -25.65 2 15.8961 3.61668 0.931518 0.5 -1.5 2.65 -15.5423 -13.6797 -10.6146 0 -3.8 3.7 -1.04463 17.9581 -0.721637 0 -3 2.7 0.0183573 14.7601 -0.0233374 0 -1.9 1.6 -2.38542e-15 0 -0 0 -8.3 1.9 9.50427 -7.15539 0.565075 0 -4.5 0 -5.80541e-08 -4.99914e-07 7.59784e-05 0 -3.4 -5.68434e-14 5.60112e-07 -8.65457e-07 7.36744e-05 0.25 -2.2 0.4 -2.38542e-15 0 -0 -5.68434e-14 -8.3 1 16.3923 -5.32944 0.0373549 1.13687e-13 -4.65 5.68434e-14 28.8071 46.5042 18.6654 0 -3.3 2.84217e-14 53.1087 -0.0229114 0.0672871 0.5 -2.15 -0.8 -2.38542e-15 0 -0 5.68434e-14 -7.75 -0.2 37.9392 -3.36074 -1.02231 0 -3.8 -5.68434e-14 27.573 37.2182 12.0199 0 -3.4 -5.68434e-14 44.0697 0.00584528 -0.00678503 0.75 -1.75 -1.85 -2.38542e-15 0 -0 -5.68434e-14 -7.15 -1 54.3001 -6.43164 -0.478085 2.27374e-13 -3 -1.13687e-13 23.0793 38.2202 14.96 1.13687e-13 -2.35 0 46.1876 -0.00299848 0.015411 8 0 0 7.38698 -35.0097 -173.868 -5.68434e-14 -45 -1 21.0097 -48.6961 112.455 0 -41 -2 -0.766894 0.646493 79.0039 0 -7.5 12.5 0.00234207 5.92526e-06 8.82036e-06 -5.68434e-14 -3.55271e-15 4 7.09468 -0.449301 42.0401 -8 -5.68434e-14 0 2.19326 -42.853 -121.26 1.13687e-13 -45 -1 -74.9668 -37.4882 61.8539 2.84217e-14 -41 -2 -16.3173 -9.11594 47.3272 0 -7.5 12.5 0.00492008 -19.9695 -0.000590731 0 3.33067e-16 4 -8.38211 15.4561 38.5856 
-245.773 71.7827 920.367 -18.0386 16.4708 179.446 -5.68434e-14 8 -1.13687e-13 3.78119 13.1226 -13.0748 2.84217e-14 8 -1.13687e-13 0.155243 7.99656 1.30775 0 8 0 0.0962314 4.00273 0.655918 -8.52651e-14 8 0 0.0960394 3.99281 0.65418 -5.68434e-14 17 0 1.53504 2.6618 -6.48829 8.52651e-14 10.8 0 4.05449 5.92175 -15.326 5 17 -1.13687e-13 -4.62877 -4.03524 -0.895139 6.45 -5.68434e-14 0 0.613584 -0.394759 4.03846 6.45 2.84217e-14 0 45.4057 34.1166 8.00147 0 -32.4 -2 -119.807 -69.6248 -145.16 0 -25.65 2 -21.4767 -54.6617 -42.726 -0.5 -1.5 2.65 -14.7758 33.6199 -31.1956 -5.68434e-14 -3.8 3.7 -1.45301 7.51367 -0.119125 0 -3 2.7 -0.116497 -10.2203 0.270919 0 -1.9 1.6 1.59028e-15 -1.59028e-14 -3.18055e-15 1.13687e-13 -8.3 1.9 -71.4162 -15.7194 -9.48778 2.27374e-13 -4.5 0 -0.000626353 0.000398333 1.40148e-05 0 -3.4 0 -9.24917e-06 -1.10697e-05 -2.92076e-06 -0.25 -2.2 0.4 1.59028e-15 -1.59028e-14 -3.18055e-15 0 -8.3 1 -42.3886 -14.0877 -4.16175 0 -4.65 -1.13687e-13 -0.000819851 0.00054181 7.15263e-06 -1.13687e-13 -3.3 -1.13687e-13 -5.67906e-06 4.98916e-06 6.6088e-06 -0.5 -2.15 -0.8 1.59028e-15 -1.59028e-14 -3.18055e-15 0 -7.75 -0.2 -83.9585 2.41166 10.9923 1.13687e-13 -3.8 0 -0.000600995 0.0049589 -0.00030369 0 -3.4 -5.68434e-14 1.67795e-07 1.96309e-05 -0.000276921 -0.75 -1.75 -1.85 1.59028e-15 -1.59028e-14 -3.18055e-15 0 -7.15 -1 -82.359 -4.55159 6.96881 0 -3 0 -2.23326e-06 0.00489298 -1.322e-05 -1.13687e-13 -2.35 0 -7.1352e-06 1.61152e-05 -6.74512e-06 -5 17 -1.13687e-13 9.55993 -2.40005 4.06916 -6.45 -2.84217e-14 0 -2.2046 0.580272 -4.50877 -6.45 0 0 -39.3738 11.629 -8.16667 2.84217e-14 -32.4 -2 51.8904 -79.1877 47.937 0 -25.65 2 15.7261 2.99772 0.960542 0.5 -1.5 2.65 -15.3034 -13.8229 -10.2544 2.84217e-14 -3.8 3.7 -1.06818 18.2838 -0.722981 2.84217e-14 -3 2.7 0.0181326 14.2252 -0.0232811 0 -1.9 1.6 -1.59028e-15 6.36111e-15 -0 0 -8.3 1.9 10.0613 -6.92963 0.577122 -5.68434e-14 -4.5 0 -5.80541e-08 -4.99914e-07 7.59784e-05 -5.68434e-14 -3.4 5.68434e-14 5.60112e-07 -8.65457e-07 7.36744e-05 0.25 -2.2 0.4 -1.59028e-15 6.36111e-15 -0 0 -8.3 1 16.8046 -5.17746 0.0443931 0 -4.65 0 27.5859 46.5236 18.6907 0 -3.3 0 51.4622 -0.009097 0.0349765 0.5 -2.15 -0.8 -1.59028e-15 6.36111e-15 -0 -5.68434e-14 -7.75 -0.2 38.0982 -3.2501 -1.0446 -1.13687e-13 -3.8 0 27.2633 37.2182 12.0199 -1.13687e-13 -3.4 -2.84217e-14 43.7912 0.00584528 -0.00678503 0.75 -1.75 -1.85 -1.59028e-15 6.36111e-15 -0 0 -7.15 -1 54.4091 -6.35956 -0.524219 2.27374e-13 -3 -1.13687e-13 22.4584 38.2146 14.9537 0 -2.35 0 45.6123 -0.00299848 0.0225404 8 5.68434e-14 -1.13687e-13 7.50455 -34.7422 -173.857 -5.68434e-14 -45 -1 20.8626 -48.5189 112.31 0 -41 -2 -0.911459 0.292208 78.4469 5.68434e-14 -7.5 12.5 0.00234207 5.92526e-06 8.82036e-06 0 -7.10543e-15 4 7.53986 -0.477599 42.1116 -8 -5.68434e-14 0 2.20304 -42.8608 -120.999 0 -45 -1 -74.9541 -37.4967 61.8661 -5.68434e-14 -41 -2 -16.2872 -9.13655 47.2591 0 -7.5 12.5 0.00492066 -19.9164 -0.000590532 0 2.22045e-16 4 -8.41164 15.3793 38.5731 
